<svg version="1.1" xmlns="http://www.w3.org/2000/svg" style="display: block;" viewBox="0 0 2048 2048" width="1024" height="1024" preserveAspectRatio="none">
<defs>
	<linearGradient id="Gradient1" gradientUnits="userSpaceOnUse" x1="1369.62" y1="938.854" x2="1368.18" y2="604.025">
		<stop class="stop0" offset="0" stop-opacity="1" stop-color="rgb(162,183,249)"/>
		<stop class="stop1" offset="1" stop-opacity="1" stop-color="rgb(95,219,251)"/>
	</linearGradient>
	<linearGradient id="Gradient2" gradientUnits="userSpaceOnUse" x1="696.694" y1="1457.89" x2="690.979" y2="1121.67">
		<stop class="stop0" offset="0" stop-opacity="1" stop-color="rgb(243,133,250)"/>
		<stop class="stop1" offset="1" stop-opacity="1" stop-color="rgb(200,166,252)"/>
	</linearGradient>
	<linearGradient id="Gradient3" gradientUnits="userSpaceOnUse" x1="1430.53" y1="1457.79" x2="1413.05" y2="988.582">
		<stop class="stop0" offset="0" stop-opacity="1" stop-color="rgb(244,133,250)"/>
		<stop class="stop1" offset="1" stop-opacity="1" stop-color="rgb(177,181,251)"/>
	</linearGradient>
	<linearGradient id="Gradient4" gradientUnits="userSpaceOnUse" x1="646.182" y1="1073.47" x2="642.192" y2="670.088">
		<stop class="stop0" offset="0" stop-opacity="1" stop-color="rgb(190,170,249)"/>
		<stop class="stop1" offset="1" stop-opacity="1" stop-color="rgb(109,211,251)"/>
	</linearGradient>
	<linearGradient id="Gradient5" gradientUnits="userSpaceOnUse" x1="1046.93" y1="1653.83" x2="1042.7" y2="1228.77">
		<stop class="stop0" offset="0" stop-opacity="1" stop-color="rgb(255,118,251)"/>
		<stop class="stop1" offset="1" stop-opacity="1" stop-color="rgb(216,156,250)"/>
	</linearGradient>
	<linearGradient id="Gradient6" gradientUnits="userSpaceOnUse" x1="1013.96" y1="834.022" x2="1019.28" y2="402.695">
		<stop class="stop0" offset="0" stop-opacity="1" stop-color="rgb(147,193,250)"/>
		<stop class="stop1" offset="1" stop-opacity="1" stop-color="rgb(41,241,251)"/>
	</linearGradient>
	<linearGradient id="Gradient7" gradientUnits="userSpaceOnUse" x1="1019.86" y1="1742.75" x2="1038.76" y2="317.236">
		<stop class="stop0" offset="0" stop-opacity="1" stop-color="rgb(51,24,80)"/>
		<stop class="stop1" offset="1" stop-opacity="1" stop-color="rgb(20,42,78)"/>
	</linearGradient>
</defs>

<path transform="translate(0,0)" fill="url(#Gradient6)" d="M 1024.8 401.367 C 1036.03 400.083 1047.41 401.467 1058 405.408 C 1080.11 413.588 1106.83 433.061 1127.77 445.401 C 1154.31 461.034 1182.29 474.884 1208.15 491.606 C 1214.93 495.987 1221.62 501.117 1223.19 509.523 C 1226.6 527.786 1196.88 544.169 1184.33 554.205 C 1099.4 622.098 1031.14 705.442 970.279 794.932 C 964.741 803.584 949.449 833.2 939.962 835.376 C 935.465 836.408 929.996 834.491 925.879 832.8 C 913.504 827.715 901.339 819.305 889.69 812.587 C 874.052 803.567 856.992 795.217 842.492 784.528 C 824.593 771.331 817.01 747.956 813.849 726.919 C 805.628 672.197 814.355 609.127 826.474 555.502 C 830.664 536.96 834.642 516.104 846.546 500.759 C 850.408 495.78 855.65 491.411 860.884 487.922 C 868.915 482.569 877.756 478.149 886.136 473.353 C 903.984 463.056 921.889 452.858 939.851 442.76 C 959.178 431.688 977.849 418.358 998.03 408.941 C 1006.85 404.823 1015.2 402.724 1024.8 401.367 z"/>
<path transform="translate(0,0)" fill="url(#Gradient5)" d="M 1121.14 1226.19 C 1125.68 1226.33 1128.76 1227.28 1132.77 1229.42 C 1144.69 1235.78 1155.73 1243.7 1167.55 1250.23 C 1197.98 1267.04 1234.04 1280.85 1245.08 1317.01 C 1260.41 1367.25 1250.49 1503.13 1224.74 1548.93 C 1220.8 1555.94 1213.35 1562.37 1206.9 1567.05 C 1188.26 1580.58 1166.43 1591.29 1146.47 1602.81 C 1121.72 1617.09 1076.97 1646.33 1050.71 1653.75 C 1028.04 1660.16 1005.42 1654 985.538 1642.83 C 961.198 1630.52 937.78 1614.74 914.024 1601.17 L 870.709 1576.6 C 863.406 1572.45 855.366 1568.63 848.596 1563.68 C 844.792 1560.9 840.964 1557.54 839.366 1552.96 C 837.688 1548.16 838.543 1542.5 840.971 1538.11 C 847.52 1526.27 871.528 1512.12 882.756 1502.86 C 951.612 1446.75 1012.33 1381.32 1063.16 1308.48 C 1074.91 1291.67 1086.12 1274.49 1096.78 1256.97 C 1101.68 1248.98 1105.42 1239.56 1111.36 1232.33 C 1114.24 1228.8 1116.85 1227.54 1121.14 1226.19 z"/>
<path transform="translate(0,0)" fill="url(#Gradient4)" d="M 554.017 666.628 C 574.156 653.924 595.415 642.758 615.974 630.733 C 631.588 621.601 647.852 609.946 664.591 603.194 C 668.27 601.71 672.211 601.277 676.113 602.047 C 679.889 602.792 684.167 604.893 686.34 608.197 C 690.429 614.414 697.749 667.963 699.004 678.74 C 705.384 707.713 710.351 736.725 717.706 765.532 C 732.921 825.238 753.705 883.383 779.785 939.205 C 788.552 957.652 798.716 975.183 808.035 993.298 C 810.767 998.607 813.189 1004.91 810.994 1010.85 C 809.804 1014.07 807.471 1016.65 804.842 1018.78 C 796.323 1025.69 784.958 1030.91 775.416 1036.42 C 758.878 1045.97 742.558 1056.29 725.399 1064.68 C 701.989 1076.13 680.824 1079.7 655.793 1070.89 C 608.34 1054.2 505.814 975.386 485.078 931.573 C 482.107 925.296 480.935 918.152 480.329 911.269 C 478.081 885.748 479.913 853.909 479.951 827.794 C 479.99 800.675 478.123 771.73 480.442 744.906 C 481.124 737.018 482.613 728.558 485.519 721.167 C 493.824 700.05 514.152 688.683 532.744 678.114 C 539.652 674.187 546.655 669.622 554.017 666.628 z"/>
<path transform="translate(0,0)" fill="rgb(104,213,251)" d="M 554.017 666.628 C 574.156 653.924 595.415 642.758 615.974 630.733 C 631.588 621.601 647.852 609.946 664.591 603.194 C 668.27 601.71 672.211 601.277 676.113 602.047 C 679.889 602.792 684.167 604.893 686.34 608.197 C 690.429 614.414 697.749 667.963 699.004 678.74 C 698.122 681.737 696.843 683.546 694.967 685.954 C 691.055 687.396 685.134 683.66 680.818 683.551 C 672.627 683.343 664.397 686.567 656.059 686.189 C 645.245 685.699 634.929 681.794 623.913 682.03 C 610.858 682.309 597.384 687.97 584.546 686.874 C 579.763 686.466 577.273 681.608 573.028 679.982 C 568.171 678.121 561.427 678.949 556.947 676.519 C 555.005 675.465 553.233 672.865 551.87 671.16 L 551.001 670.055 L 550.961 670.367 L 552.001 668.989 L 553.557 668.537 L 554.017 666.628 z"/>
<path transform="translate(0,0)" fill="url(#Gradient3)" d="M 1369.59 989.323 C 1378.03 987.963 1386.92 989.109 1395.14 991.239 C 1442.85 1003.62 1551.38 1086.25 1575.92 1128.66 C 1580.2 1136.05 1581.99 1145.67 1582.77 1154.11 C 1585.05 1178.71 1583.27 1205.71 1583.27 1230.53 L 1583.25 1288.25 C 1583.23 1303.2 1584.87 1320.43 1580.98 1334.95 C 1578.13 1345.63 1572.53 1356.17 1564.79 1364.1 C 1550.19 1379.06 1527.11 1389.12 1508.97 1399.49 L 1444.06 1436.87 C 1430.94 1444.78 1414.23 1457.6 1399.38 1460.84 C 1394.44 1461.92 1388.92 1461.8 1384.63 1458.82 C 1381.29 1456.49 1378.48 1452.8 1377.05 1449.01 C 1373.77 1440.29 1373.17 1428.77 1371.56 1419.54 C 1368.53 1402.25 1365.24 1385.01 1361.68 1367.82 C 1349.33 1307.75 1332.18 1248.77 1310.41 1191.44 C 1302.68 1170.73 1294.31 1150.27 1285.33 1130.07 C 1280.03 1118.26 1253.01 1065.39 1251.99 1056.74 C 1251.64 1053.78 1252.44 1051.93 1254.29 1049.67 C 1261.4 1040.99 1332.99 1001.26 1346.75 995.363 C 1354.31 992.121 1361.45 990.328 1369.59 989.323 z"/>
<path transform="translate(0,0)" fill="url(#Gradient2)" d="M 492.805 1123.97 C 496.263 1123.83 499.58 1123.78 502.954 1124.71 C 515.491 1128.14 528.069 1134.53 540.111 1139.49 C 556.101 1146.11 572.35 1152.1 588.818 1157.42 C 615.271 1166.27 642.11 1173.92 669.253 1180.34 C 716.855 1191.54 766.939 1200.25 815.867 1202.77 C 830.728 1203.63 845.613 1204 860.498 1203.89 C 870.673 1203.89 881.525 1203.13 891.613 1204.35 C 895.953 1204.88 901.514 1205.64 904.195 1209.49 C 906.376 1212.63 907.213 1218.24 907.581 1221.94 C 909.111 1237.39 908.938 1317.59 905.783 1330.34 C 897.222 1364.94 861.641 1382.9 833.679 1400.06 C 797.426 1420.37 711.461 1466.68 670.501 1460.08 C 663.021 1458.87 655.336 1456.48 648.486 1453.24 C 624.529 1441.92 601.893 1426.85 578.885 1413.68 C 555.34 1400.21 529.2 1387.78 507.448 1371.73 C 501.84 1367.6 496.934 1362.59 492.92 1356.89 C 486.489 1347.87 482.46 1336.97 480.906 1326.03 C 479.171 1313.82 480.003 1300.85 479.995 1288.53 L 479.943 1227.72 L 479.931 1171.24 C 479.934 1160.52 478.946 1148.41 480.978 1137.89 C 482.248 1131.32 487.444 1127.35 492.805 1123.97 z"/>
<path transform="translate(0,0)" fill="url(#Gradient1)" d="M 1370.7 603.254 C 1378.14 602.193 1386.22 602.384 1393.62 603.648 C 1399.79 604.703 1405.97 606.204 1411.62 608.946 C 1433.16 619.399 1459.91 637.61 1481.57 650.074 L 1528.71 676.73 C 1537.67 681.782 1547.59 686.67 1555.84 692.809 C 1561.64 697.119 1566.55 702.968 1570.65 708.882 C 1576.11 716.751 1581.02 727.132 1582.53 736.633 C 1584.22 747.328 1583.26 759.184 1583.25 770.039 L 1583.19 832.322 L 1583.27 893.927 C 1583.28 903.624 1584.56 915.333 1582.58 924.739 C 1581.44 930.145 1578.13 935.432 1573.41 938.379 C 1569.24 940.976 1566.55 941.34 1561.87 940.158 C 1547.42 936.504 1533.2 928.336 1519.2 922.915 C 1487.02 910.455 1453.76 898.547 1420.22 890.315 C 1360.77 874.748 1299.9 865.205 1238.53 861.83 C 1224.33 860.947 1210.11 861.068 1195.89 861.155 C 1187.11 861.209 1177.05 862.255 1168.51 860.386 C 1162.54 859.081 1159.2 853.529 1155.99 848.835 C 1154.89 831.167 1155.63 813.058 1155.64 795.344 C 1155.64 775.685 1153.61 753.462 1157.67 734.265 C 1159.6 725.124 1163.83 716.351 1169.19 708.734 C 1192.07 676.251 1329.6 610.399 1370.7 603.254 z"/>
</svg>